#!OML:ASF I:\Actors\actors\Patient Classification 2\Patient 1\Session 1\actor1.ASF
:FULLY-SPECIFIED
:DEGREES
501
root 0.481525 18.48 3.40247 14.8941 -21.4855 -11.4293
lowerback 24.1064 0.40465 -6.36171
upperback 7.12601 -1.31489 -2.8395
thorax -5.47145 -0.678665 0.917969
lowerneck -13.0295 4.17293 8.3895
upperneck 29.9538 3.31513 0.605175
head 12.2163 2.3646 -0.765611
rclavicle 5.56597e-014 -6.36111e-015
rhumerus -14.4686 50.3487 -90.8584
rradius 110.13
rwrist -36.8285
rhand -33.951 -33.6248
rfingers 7.12502
rthumb -7.13225 -63.4846
lclavicle 5.56597e-014 -6.36111e-015
lhumerus -12.3306 -25.2624 79.3976
lradius 74.7485
lwrist 16.9185
lhand -31.63 -77.1439
lfingers 7.12502
lthumb -4.89147 -47.2204
rfemur -14.9074 12.8733 19.0033
rtibia -3.49861e-014
rfoot -3.66273 -10.6422
rtoes -8.50137
lfemur -28.3039 11.8176 -8.14399
ltibia 42.3209
lfoot -25.507 13.6976
ltoes -52.2527
502
root 0.423913 18.4841 3.39906 14.7087 -21.6754 -11.4931
lowerback 24.0508 0.371446 -6.63614
upperback 6.97271 -1.42235 -2.81998
thorax -5.59645 -0.723127 1.12462
lowerneck -12.9707 4.27641 8.35446
upperneck 30.2937 3.48171 0.546621
head 12.3489 2.42976 -0.757053
rclavicle 5.24792e-014 1.27222e-014
rhumerus -14.4349 50.5897 -90.7539
rradius 109.784
rwrist -35.1413
rhand -34.7602 -30.7705
rfingers 7.12502
rthumb -7.91337 -60.6024
lclavicle 5.24792e-014 1.27222e-014
lhumerus -12.5867 -25.4987 79.305
lradius 74.8438
lwrist 17.0798
lhand -31.3948 -76.9664
lfingers 7.12502
lthumb -4.66441 -47.0377
rfemur -14.6378 13.1336 19.2681
rtibia -7.15625e-015
rfoot -3.71836 -10.6464
rtoes -7.93675
lfemur -27.8523 11.8979 -7.84502
ltibia 42.1632
lfoot -25.4732 13.8491
ltoes -52.309
503
root 0.367985 18.4895 3.40496 14.5569 -22.1077 -11.6048
lowerback 23.9241 0.429226 -6.89348
upperback 6.79323 -1.40105 -2.74372
thorax -5.72106 -0.705052 1.34697
lowerneck -12.973 4.34587 8.09159
upperneck 30.6604 3.6423 0.531405
head 12.4963 2.47251 -0.693038
rclavicle -2.06736e-014 3.18055e-014
rhumerus -14.4212 51.1531 -90.6705
rradius 109.871
rwrist -36.2067
rhand -35.347 -30.5144
rfingers 7.12502
rthumb -8.47967 -60.3242
lclavicle -2.06736e-014 3.18055e-014
lhumerus -13.2992 -25.9419 79.1948
lradius 74.6793
lwrist 17.2002
lhand -31.0425 -76.7085
lfingers 7.12502
lthumb -4.32419 -46.7727
rfemur -14.4054 13.634 19.4983
rtibia -4.05521e-014
rfoot -3.70638 -10.6672
rtoes -8.1524
lfemur -27.2761 12.1051 -7.56102
ltibia 41.9377
lfoot -25.5146 14.0701
ltoes -52.2406
504
root 0.310538 18.4934 3.40383 14.3333 -22.4974 -11.6403
lowerback 23.9641 0.509505 -7.08588
upperback 6.58999 -1.35633 -2.70872
thorax -5.96146 -0.670924 1.48292
lowerneck -12.8637 4.38573 8.06674
upperneck 30.8793 3.76369 0.358468
head 12.57 2.50319 -0.737974
rclavicle -7.31528e-014 5.725e-014
rhumerus -14.615 51.9422 -91.001
rradius 109.869
rwrist -37.4932
rhand -34.9789 -31.318
rfingers 7.12502
rthumb -8.12439 -61.1418
lclavicle -7.31528e-014 5.725e-014
lhumerus -14.3703 -26.7434 78.949
lradius 74.4824
lwrist 17.3828
lhand -30.8357 -76.5323
lfingers 7.12502
lthumb -4.12453 -46.5925
rfemur -14.1126 14.0765 19.6948
rtibia 2.3059e-014
rfoot -3.68112 -10.6496
rtoes -8.29385
lfemur -26.6533 12.2852 -7.32039
ltibia 41.6778
lfoot -25.5179 14.2685
ltoes -52.2472
505
root 0.253121 18.4989 3.40698 13.986 -23.0527 -11.5869
lowerback 24.0082 0.670747 -7.25969
upperback 6.43328 -1.21072 -2.75844
thorax -6.16377 -0.590894 1.48694
lowerneck -12.6492 4.38614 8.24699
upperneck 30.991 3.82361 0.0724224
head 12.5846 2.51514 -0.872804
rclavicle -8.11041e-014 -3.81667e-014
rhumerus -14.831 52.8209 -91.6397
rradius 109.658
rwrist -38.4185
rhand -31.8855 -35.1995
rfingers 7.12502
rthumb -5.13814 -65.1172
lclavicle -8.11041e-014 -3.81667e-014
lhumerus -15.7001 -27.8158 78.5578
lradius 74.3345
lwrist 17.4831
lhand -30.7556 -76.3659
lfingers 7.12502
lthumb -4.04709 -46.4246
rfemur -13.7016 14.6529 19.7805
rtibia -5.96354e-015
rfoot -3.69478 -10.5827
rtoes -7.99932
lfemur -25.8339 12.4622 -7.17657
ltibia 41.3838
lfoot -25.5843 14.5012
ltoes -52.2445
506
root 0.195218 18.5065 3.4091 13.686 -23.6368 -11.465
lowerback 23.9197 0.84715 -7.39416
upperback 6.31811 -1.02207 -2.81922
thorax -6.25808 -0.494811 1.44272
lowerneck -12.5906 4.36299 8.17631
upperneck 31.1797 3.82121 0.0367862
head 12.6477 2.50375 -0.875365
rclavicle 4.13472e-014 2.8625e-014
rhumerus -14.9428 53.8868 -92.2969
rradius 109.432
rwrist -39.4815
rhand -31.3311 -35.0123
rfingers 7.12502
rthumb -4.60281 -64.9423
lclavicle 4.13472e-014 2.8625e-014
lhumerus -17.2105 -28.9529 78.1282
lradius 74.2425
lwrist 17.4652
lhand -30.6074 -76.0005
lfingers 7.12502
lthumb -3.90403 -46.0565
rfemur -13.3734 15.242 19.7862
rtibia 2.62396e-014
rfoot -3.72658 -10.5207
rtoes -7.6288
lfemur -25.0779 12.5884 -7.11607
ltibia 41.057
lfoot -25.613 14.8069
ltoes -52.3362
507
root 0.13847 18.5153 3.41032 13.4631 -24.1985 -11.2917
lowerback 23.6567 1.00496 -7.42692
upperback 6.28232 -0.813236 -2.91265
thorax -6.18055 -0.39712 1.29929
lowerneck -12.7481 4.38148 7.90042
upperneck 31.4061 3.83863 0.236947
head 12.7622 2.50782 -0.744837
rclavicle 4.77083e-014 1.59028e-014
rhumerus -14.921 55.0233 -92.8586
rradius 109.306
rwrist -40.3969
rhand -30.1627 -35.1483
rfingers 7.12502
rthumb -3.4746 -65.0997
lclavicle 4.77083e-014 1.59028e-014
lhumerus -18.7941 -30.1592 77.6558
lradius 74.3027
lwrist 17.6721
lhand -30.3851 -75.8844
lfingers 7.12502
lthumb -3.68932 -45.9366
rfemur -13.1724 15.7967 19.7215
rtibia 2.06736e-014
rfoot -3.73759 -10.4559
rtoes -7.34351
lfemur -24.4436 12.6618 -7.13397
ltibia 40.7097
lfoot -25.6238 15.1946
ltoes -52.5425
508
root 0.0842888 18.5238 3.41266 13.2031 -24.7983 -11.0331
lowerback 23.3339 1.18595 -7.4569
upperback 6.33722 -0.567274 -3.05896
thorax -5.97502 -0.287964 1.08815
lowerneck -12.5899 4.3526 8.25417
upperneck 31.2065 3.85078 -0.156766
head 12.6657 2.50379 -0.957948
rclavicle 3.33958e-014 -9.54166e-015
rhumerus -14.7359 56.0876 -93.2579
rradius 109.257
rwrist -41.0837
rhand -30.7085 -34.8935
rfingers 7.12502
rthumb -4.00168 -64.8357
lclavicle 3.33958e-014 -9.54166e-015
lhumerus -20.2827 -31.3332 77.1391
lradius 74.5282
lwrist 17.9898
lhand -30.1314 -76.5264
lfingers 7.12502
lthumb -3.44434 -46.5744
rfemur -12.9849 16.3656 19.5521
rtibia -2.06736e-014
rfoot -3.72403 -10.3754
rtoes -7.17935
lfemur -23.8012 12.7385 -7.26049
ltibia 40.3597
lfoot -25.6967 15.5931
ltoes -52.717
509
root 0.0312123 18.5285 3.40881 12.9901 -25.3157 -10.7248
lowerback 23.0094 1.37371 -7.52514
upperback 6.39773 -0.317621 -3.18614
thorax -5.76044 -0.176523 0.921013
lowerneck -12.5392 4.29975 8.43733
upperneck 31.1342 3.79976 -0.359787
head 12.6322 2.47766 -1.07537
rclavicle 1.59028e-015 -1.90833e-014
rhumerus -14.4643 56.9585 -93.4675
rradius 109.272
rwrist -41.7185
rhand -30.2467 -34.9353
rfingers 7.12502
rthumb -3.55573 -64.8854
lclavicle 1.59028e-015 -1.90833e-014
lhumerus -21.6189 -32.3889 76.6681
lradius 74.7338
lwrist 18.2902
lhand -30.8158 -75.3168
lfingers 7.12502
lthumb -4.10529 -45.3766
rfemur -12.8815 16.8448 19.3387
rtibia -3.97569e-015
rfoot -3.69722 -10.3154
rtoes -7.1047
lfemur -23.2932 12.819 -7.43509
ltibia 40.017
lfoot -25.6987 15.9621
ltoes -52.8789
510
root -0.0239069 18.5293 3.39767 12.873 -25.7164 -10.4896
lowerback 22.738 1.57377 -7.62687
upperback 6.43718 -0.055711 -3.20269
thorax -5.5952 -0.0565113 0.891453
lowerneck -12.5811 4.24588 8.3887
upperneck 31.1817 3.73461 -0.367325
head 12.6553 2.44452 -1.07866
rclavicle -1.59028e-014 -2.54444e-014
rhumerus -14.274 57.6235 -93.5505
rradius 109.375
rwrist -42.2761
rhand -29.8784 -35.0872
rfingers 7.12502
rthumb -3.2 -65.0429
lclavicle -1.59028e-014 -2.54444e-014
lhumerus -22.8573 -33.4344 76.3657
lradius 74.7243
lwrist 18.5107
lhand -30.9015 -76.1484
lfingers 7.12502
lthumb -4.18801 -46.2098
rfemur -12.8451 17.2326 19.227
rtibia 7.95139e-016
rfoot -3.66858 -10.2713
rtoes -7.15491
lfemur -22.9158 12.9376 -7.51688
ltibia 39.688
lfoot -25.6342 16.2439
ltoes -53.0195
511
root -0.0798079 18.529 3.38484 12.7595 -26.0545 -10.2713
lowerback 22.6183 1.76816 -7.75598
upperback 6.43722 0.177638 -3.18664
thorax -5.54901 0.0543336 0.919773
lowerneck -12.548 4.2026 8.42528
upperneck 31.2051 3.7205 -0.533259
head 12.6606 2.4235 -1.15113
rclavicle -4.77083e-015 -3.18055e-015
rhumerus -14.2537 58.0788 -93.6654
rradius 109.531
rwrist -42.6698
rhand -30.0752 -35.3153
rfingers 7.12502
rthumb -3.3901 -65.2681
lclavicle -4.77083e-015 -3.18055e-015
lhumerus -24.0322 -34.356 76.2417
lradius 74.572
lwrist 18.4746
lhand -31.2787 -74.8653
lfingers 7.12502
lthumb -4.55224 -44.9342
rfemur -12.8028 17.5655 19.1548
rtibia 6.36111e-015
rfoot -3.62667 -10.2445
rtoes -7.33443
lfemur -22.5684 13.0692 -7.56752
ltibia 39.3908
lfoot -25.64 16.3963
ltoes -53.1014
512
root -0.133159 18.5292 3.37011 12.6535 -26.2708 -10.0556
lowerback 22.6546 1.88074 -7.78958
upperback 6.39258 0.303248 -3.23258
thorax -5.62513 0.117859 0.853693
lowerneck -12.4132 4.17393 8.60145
upperneck 31.2039 3.71712 -0.753824
head 12.6408 2.41562 -1.26859
rclavicle 0 1.90833e-014
rhumerus -14.3153 58.282 -93.8196
rradius 109.583
rwrist -42.8303
rhand -30.0541 -35.4155
rfingers 7.12502
rthumb -3.36969 -65.3686
lclavicle 0 1.90833e-014
lhumerus -25.0683 -34.999 76.1226
lradius 74.5607
lwrist 18.5744
lhand -31.4974 -74.5291
lfingers 7.12502
lthumb -4.76345 -44.6027
rfemur -12.78 17.7771 19.0958
rtibia 5.96354e-015
rfoot -3.60471 -10.224
rtoes -7.36031
lfemur -22.3094 13.1589 -7.60299
ltibia 39.1417
lfoot -25.6329 16.4594
ltoes -53.2189
